<?xml version="1.0" encoding="utf-8"?>
<!-- Generator: Adobe Illustrator 16.0.4, SVG Export Plug-In . SVG Version: 6.00 Build 0)  -->
<!DOCTYPE svg PUBLIC "-//W3C//DTD SVG 1.1//EN" "http://www.w3.org/Graphics/SVG/1.1/DTD/svg11.dtd">
<svg version="1.1" id="レイヤー_1" xmlns="http://www.w3.org/2000/svg" xmlns:xlink="http://www.w3.org/1999/xlink" x="0px"
	 y="0px" width="93.212px" height="85.01px" viewBox="0 0 93.212 85.01" enable-background="new 0 0 93.212 85.01"
	 xml:space="preserve">
<polygon fill="#FFFFFF" points="46.908,85.01 0,38.102 1.876,36.226 46.908,81.257 91.336,36.827 93.212,38.703 "/>
<g>
	<path fill="#FFFFFF" d="M18.758,0.824V3.98c-0.985-0.705-1.872-1.057-2.659-1.057c-0.85,0-1.544,0.301-2.083,0.902
		c-0.539,0.57-0.809,1.332-0.809,2.286c0,0.839,0.192,1.56,0.576,2.161c0.197,0.321,0.521,0.736,0.972,1.244
		c0.451,0.508,1.034,1.12,1.75,1.834c1.316,1.337,2.213,2.493,2.69,3.468c0.477,0.943,0.715,2.099,0.715,3.467
		c0,1.856-0.523,3.385-1.571,4.587c-1.047,1.171-2.389,1.757-4.027,1.757c-1.378,0-2.555-0.378-3.53-1.135v-3.203
		c1.151,0.839,2.198,1.259,3.141,1.259c0.881,0,1.571-0.293,2.068-0.879c0.498-0.585,0.746-1.381,0.746-2.387
		c0-0.871-0.191-1.653-0.575-2.348c-0.197-0.332-0.472-0.713-0.824-1.143c-0.353-0.43-0.793-0.91-1.322-1.438
		c-0.819-0.809-1.498-1.523-2.037-2.146c-0.539-0.622-0.938-1.166-1.198-1.632c-0.498-0.912-0.746-2.063-0.746-3.452
		c0-1.876,0.487-3.364,1.461-4.463C12.481,0.555,13.803,0,15.461,0C16.612,0,17.711,0.274,18.758,0.824z"/>
	<path fill="#FFFFFF" d="M32.053,0.715v2.908c-0.83-0.404-1.524-0.606-2.084-0.606c-0.767,0-1.425,0.189-1.975,0.567
		c-0.549,0.378-1.002,0.961-1.36,1.75c-0.357,0.788-0.622,1.786-0.793,2.993c-0.171,1.208-0.256,2.636-0.256,4.284
		c0,5.93,1.519,8.895,4.556,8.895c0.529,0,1.167-0.166,1.913-0.498v2.97c-0.778,0.436-1.648,0.653-2.613,0.653
		c-4.862,0-7.292-3.97-7.292-11.911c0-4.292,0.593-7.485,1.78-9.579C25.115,1.047,26.932,0,29.378,0
		C30.28,0,31.172,0.238,32.053,0.715z"/>
	<path fill="#FFFFFF" d="M34.774,0.327h4.261c1.762,0,3.074,0.42,3.934,1.259c1.088,1.088,1.633,2.752,1.633,4.991
		c0,1.721-0.288,3.103-0.863,4.145c-0.575,1.042-1.396,1.687-2.464,1.936l4.416,11.678h-3.281L38.008,12.58v11.755h-3.234V0.327z
		 M38.008,10.962c1.254,0,2.141-0.29,2.659-0.871c0.518-0.581,0.777-1.56,0.777-2.939c0-0.747-0.054-1.384-0.163-1.913
		s-0.28-0.959-0.513-1.291c-0.233-0.332-0.534-0.576-0.902-0.731s-0.806-0.233-1.314-0.233h-0.544V10.962z"/>
	<path fill="#FFFFFF" d="M60.213,12.921c0,4.24-0.471,7.251-1.414,9.035s-2.525,2.674-4.743,2.674c-2.333,0-3.976-0.958-4.929-2.876
		c-0.943-1.876-1.416-5.209-1.416-9.999c0-4.271,0.467-7.292,1.4-9.065c0.943-1.783,2.539-2.675,4.789-2.675
		c2.011,0,3.504,0.689,4.479,2.068c0.643,0.922,1.109,2.234,1.398,3.934C60.068,7.593,60.213,9.895,60.213,12.921z M56.824,13.264
		c0-4.157-0.188-6.914-0.561-8.272c-0.373-1.368-1.135-2.052-2.286-2.052c-1.15,0-1.917,0.627-2.301,1.881
		c-0.374,1.265-0.56,3.805-0.56,7.619c0,3.514,0.196,5.951,0.59,7.309c0.404,1.286,1.162,1.928,2.271,1.928
		c1.089,0,1.835-0.601,2.239-1.804C56.621,18.68,56.824,16.478,56.824,13.264z"/>
	<path fill="#FFFFFF" d="M63.416,0.327h3.234v21.272h5.287v2.736h-8.521V0.327z"/>
	<path fill="#FFFFFF" d="M73.959,0.327h3.234v21.272h5.287v2.736h-8.521V0.327z"/>
</g>
</svg>
